HIERARCHY
ROOT Hips
{
	OFFSET -3.958830 18.904000 13.208200
	CHANNELS 6 Xposition Yposition Zposition Zrotation Yrotation Xrotation 
	JOINT LHipJoint
	{
		OFFSET 0.000000 0.000000 0.000000
		CHANNELS 3 Zrotation Yrotation Xrotation
		JOINT LeftUpLeg
		{
			OFFSET 1.800000 -1.400000 0.085000
			CHANNELS 3 Zrotation Yrotation Xrotation
			JOINT LeftLeg
			{
				OFFSET 2.215000 -6.000000 0.000000
				CHANNELS 3 Zrotation Yrotation Xrotation
				JOINT LeftFoot
				{
					OFFSET 2.500000 -6.900000 0.000000
					CHANNELS 3 Zrotation Yrotation Xrotation
					JOINT LeftToeBase
					{
						OFFSET 0.200000 -0.500000 1.950000
						CHANNELS 3 Zrotation Yrotation Xrotation
						End Site
						{
							OFFSET 0.000000 0.000000 0.000000
						}
					}
				}
			}
		}
	}
	JOINT RHipJoint
	{
		OFFSET 0.000000 0.000000 0.000000
		CHANNELS 3 Zrotation Yrotation Xrotation
		JOINT RightUpLeg
		{
			OFFSET -1.800000 -1.400000 0.085000
			CHANNELS 3 Zrotation Yrotation Xrotation
			JOINT RightLeg
			{
				OFFSET -2.215000 -6.000000 0.000000
				CHANNELS 3 Zrotation Yrotation Xrotation
				JOINT RightFoot
				{
					OFFSET -2.500000 -6.900000 0.000000
					CHANNELS 3 Zrotation Yrotation Xrotation
					JOINT RightToeBase
					{
						OFFSET -0.200000 -0.500000 1.950000
						CHANNELS 3 Zrotation Yrotation Xrotation
						End Site
						{
							OFFSET 0.000000 0.000000 0.000000
						}
					}
				}
			}
		}
	}
	JOINT LowerBack
	{
		OFFSET 0.000000 0.000000 0.000000
		CHANNELS 3 Zrotation Yrotation Xrotation
		JOINT Spine
		{
			OFFSET -0.087000 1.940000 -0.288900
			CHANNELS 3 Zrotation Yrotation Xrotation
			JOINT Spine1
			{
				OFFSET 0.000000 1.950000 0.060000
				CHANNELS 3 Zrotation Yrotation Xrotation
				JOINT Neck
				{
					OFFSET 0.000000 0.000000 0.000000
					CHANNELS 3 Zrotation Yrotation Xrotation
					JOINT Neck1
					{
						OFFSET 0.000000 1.600000 0.340000
						CHANNELS 3 Zrotation Yrotation Xrotation
						JOINT Head
						{
							OFFSET 0.000000 1.667000 -0.240000
							CHANNELS 3 Zrotation Yrotation Xrotation
							End Site
							{
								OFFSET 0.000000 0.000000 0.000000
							}
						}
					}
				}
				JOINT LeftShoulder
				{
					OFFSET 0.000000 0.000000 0.000000
					CHANNELS 3 Zrotation Yrotation Xrotation
					JOINT LeftArm
					{
						OFFSET 2.700000 1.550000 -0.730000
						CHANNELS 3 Zrotation Yrotation Xrotation
						JOINT LeftForeArm
						{
							OFFSET 5.450000 0.000000 0.000000
							CHANNELS 3 Zrotation Yrotation Xrotation
							JOINT LeftHand
							{
								OFFSET 3.450000 0.000000 0.000000
								CHANNELS 3 Zrotation Yrotation Xrotation
								JOINT LeftHandIndex1
								{
									OFFSET 0.750000 0.000000 0.000000
									CHANNELS 3 Zrotation Yrotation Xrotation
									End Site
									{
										OFFSET 0.000000 0.000000 0.000000
									}
								}
							}
						}
					}
				}
				JOINT RightShoulder
				{
					OFFSET 0.000000 0.000000 0.000000
					CHANNELS 3 Zrotation Yrotation Xrotation
					JOINT RightArm
					{
						OFFSET -2.700000 1.550000 -0.730000
						CHANNELS 3 Zrotation Yrotation Xrotation
						JOINT RightForeArm
						{
							OFFSET -5.450000 0.000000 0.000000
							CHANNELS 3 Zrotation Yrotation Xrotation
							JOINT RightHand
							{
								OFFSET -3.450000 0.000000 0.000000
								CHANNELS 3 Zrotation Yrotation Xrotation
								JOINT RightHandIndex1
								{
									OFFSET -0.750000 0.000000 0.000000
									CHANNELS 3 Zrotation Yrotation Xrotation
									End Site
									{
										OFFSET 0.000000 0.000000 0.000000
									}
								}
							}
						}
					}
				}
			}
		}
	}
}
MOTION
Frames: 4
Frame Time: 0.016667
-1.096770 16.476010 -6.428000 1.912889 -7.006846 -4.234925 -15.250723 11.133848 5.619590 17.779790 -5.408976 -35.345884 -34.106849 20.562072 31.327464 0.873361 10.190038 0.870029 0.468070 0.109010 0.511850 18.372746 -9.276920 3.138729 -24.316140 5.678121 -27.454673 19.484128 -16.603843 39.872705 -1.099823 -7.768303 1.514645 -0.040280 -0.194950 0.247460 -3.664271 -1.598344 -9.570929 15.124340 -1.460508 27.449003 -4.634557 2.785282 -0.755248 3.998681 0.265890 -11.872748 -2.464804 1.746894 61.269480 -4.793770 2.123620 -7.294870 -27.977435 -10.957246 4.479663 -42.878168 6.415422 -8.255222 -8.750437 -17.287181 -0.812349 -3.471959 2.835989 0.735410 -0.157730 0.274870 0.029710 19.665129 14.059689 7.026458 55.476575 2.350360 -13.814514 46.310127 43.287186 11.130636 2.227834 -1.559475 -0.013980 0.027000 -0.059190 -0.316350 
-1.105810 16.436140 -6.446030 1.454225 -7.604558 -2.947173 -15.267728 10.741485 5.833456 19.936360 -4.478851 -36.522692 -38.201760 21.186874 28.614246 0.969331 10.376236 0.833685 0.443220 0.070100 0.495500 18.438493 -8.929889 3.345295 -26.242180 6.017394 -28.376114 23.526636 -17.641797 37.585893 -1.139042 -7.925817 1.458348 -0.061820 -0.180400 0.251240 -3.774163 -1.478384 -9.760070 16.833941 -1.515559 26.860031 -4.918613 3.102698 -0.730962 4.155730 0.103239 -12.038164 -2.656355 1.647257 60.639737 -5.175690 1.851320 -6.334620 -27.866048 -10.805635 4.520259 -44.338333 6.986725 -8.449182 -7.022299 -16.522425 -1.002336 -3.489744 2.826586 0.724540 -0.149440 0.259660 0.031900 19.089337 14.186671 7.376090 56.269325 1.969143 -14.088674 49.489484 45.669697 13.013585 2.239411 -1.601060 -0.018930 0.018550 -0.051480 -0.311390 
-1.122190 16.392000 -6.467400 1.005518 -8.302902 -1.565852 -15.305269 10.361446 6.061961 22.215902 -3.316401 -37.793130 -41.965809 21.987605 26.542078 1.082597 10.622462 0.768038 0.422890 0.044820 0.474640 18.493845 -8.560109 3.540636 -27.937023 6.432929 -29.414963 27.393759 -18.398746 35.324113 -1.176404 -8.045005 1.410791 -0.079450 -0.176120 0.263040 -3.847751 -1.409091 -9.945852 18.199997 -1.491152 26.390246 -4.884992 3.425298 -0.718392 4.220156 -0.297221 -12.033917 -3.367539 1.864462 59.229152 -5.569170 1.721410 -5.877910 -27.570123 -10.315824 4.424050 -46.041236 7.427598 -8.611755 -5.193417 -15.539406 -1.168065 -3.513646 2.838393 0.703700 -0.143410 0.246790 0.027900 18.549695 14.151589 7.582013 56.671998 1.796737 -13.962912 54.237559 47.929820 15.731765 2.263756 -1.659603 -0.008990 -0.007690 -0.041850 -0.302290 
-1.136690 16.353490 -6.495840 0.637444 -9.030896 -0.689901 -15.350775 10.068930 6.261855 24.314062 -2.104876 -38.601347 -45.221914 22.882716 25.142634 1.171559 10.875700 0.692477 0.435230 0.058630 0.481970 18.527101 -8.239211 3.683646 -29.386612 6.842791 -29.952437 30.807223 -18.826934 33.179216 -1.224488 -8.092382 1.400341 -0.076180 -0.189120 0.262010 -3.878328 -1.406818 -10.095423 19.383454 -1.506141 26.748974 -4.902236 3.823102 -0.724511 4.300879 -0.706785 -12.035744 -4.138489 2.327596 58.312564 -5.491670 1.692710 -7.135730 -27.366318 -9.934203 4.260619 -47.388430 7.668101 -8.778709 -3.604398 -14.940331 -1.295082 -3.514136 2.824331 0.715710 -0.156880 0.254870 0.025020 18.102416 14.243846 7.781666 56.840178 1.779677 -13.671486 60.367376 50.121703 19.298921 2.283804 -1.690120 -0.003740 -0.007060 -0.043800 -0.305320 
